<svg data-v-0dd9719b="" version="1.0" xmlns="http://www.w3.org/2000/svg" xmlns:xlink="http://www.w3.org/1999/xlink" width="100%" height="100%" viewBox="0 0 340.000000 250.000000" preserveAspectRatio="xMidYMid meet" color-interpolation-filters="sRGB" style="margin: auto;"> <rect data-v-0dd9719b="" x="0" y="0" width="100%" height="100%" fill="#fff" fill-opacity="1" class="background"></rect> <rect data-v-0dd9719b="" x="0" y="0" width="100%" height="100%" fill="url(#watermark)" fill-opacity="1" class="watermarklayer"></rect> <g data-v-0dd9719b="" fill="#c30d23" class="icon-text-wrapper icon-svg-group iconsvg" transform="translate(78.77999877929688,95.00239944458008)"><g class="iconsvg-imagesvg" transform="translate(0,0)"><g><rect fill="#c30d23" fill-opacity="0" stroke-width="2" x="0" y="0" width="60" height="59.99520038396928" class="image-rect"></rect> <svg x="0" y="0" width="60" height="59.99520038396928" filtersec="colorsb6589422211" class="image-svg-svg primary" style="overflow: visible;"><svg version="1.1" id="图层_1" xmlns="http://www.w3.org/2000/svg" xmlns:xlink="http://www.w3.org/1999/xlink" x="0px" y="0px" viewBox="1.399999976158142 1.149999976158142 121.5 121.48999786376953" enable-background="new 0 0 124 123" xml:space="preserve">
<radialGradient id="SVGID_1_" cx="62.1514" cy="61.8935" r="60.748" gradientUnits="userSpaceOnUse">
	<stop offset="0" style="stop-color:#E50012"></stop>
	<stop offset="1" style="stop-color:#C30D23"></stop>
</radialGradient>
<path fill="url(#SVGID_1_)" d="M88.62,77.66v18.51l34.28-34.28L62.15,1.15l-16.5,16.5v69.99L19.92,61.89l15.77-15.76V27.62
	L1.4,61.89l60.75,60.75l16.5-16.49V36.16l25.74,25.74h0L88.62,77.66z M65.56,100.72l-3.41,3.41l-3.41-3.41V23.07l3.41-3.41v0
	l3.41,3.4V100.72z"></path>
</svg></svg> <!----></g></g> <g transform="translate(67,8.31760025024414)"><g data-gra="path-name" fill-rule="" class="tp-name iconsvg-namesvg"><g transform="scale(1)"><g><path d="M3.9-18.98L3.9-43.36 13.07-43.36 13.07-18.98Q13.26-14.37 13.46-12.87L13.46-12.87Q13.91-9.88 16.32-8.81 18.72-7.74 24.77-7.74L24.77-7.74 33.61-7.74 33.61 0 23.79 0Q16.84 0 13.71-0.78L13.71-0.78Q6.57-2.86 4.62-9.88L4.62-9.88Q3.9-12.61 3.9-18.98L3.9-18.98ZM50.77 0L50.77-18.98 34.71-43.36 45.5-43.36 55.45-26.39 65.91-43.36 76.9-43.36 59.99-18.66 59.99 0 50.77 0ZM93.21 0L93.21-18.98 77.16-43.36 87.95-43.36 97.89-26.39 108.36-43.36 119.34-43.36 102.44-18.66 102.44 0 93.21 0Z" transform="translate(-3.9000000953674316, 43.36000061035156)"></path></g> <!----> <!----> <!----> <!----> <!----> <!----> <!----></g></g> <!----></g></g><defs v-gra="od"></defs></svg>